<?xml version="1.0" encoding="UTF-8" standalone="no"?>
<!DOCTYPE svg PUBLIC "-//W3C//DTD SVG 1.1//EN"
 "http://www.w3.org/Graphics/SVG/1.1/DTD/svg11.dtd">
<!-- Generated by graphviz version 9.0.0 (20230911.1827)
 -->
<!-- Pages: 1 -->
<svg width="425pt" height="320pt"
 viewBox="0.00 0.00 424.75 319.50" xmlns="http://www.w3.org/2000/svg" xmlns:xlink="http://www.w3.org/1999/xlink">
<g id="graph0" class="graph" transform="scale(1 1) rotate(0) translate(4 315.5)">
<polygon fill="white" stroke="none" points="-4,4 -4,-315.5 420.75,-315.5 420.75,4 -4,4"/>
<!-- User -->
<g id="node1" class="node">
<title>User</title>
<polygon fill="none" stroke="black" points="8,-278 8,-307.5 124.5,-307.5 124.5,-278 8,-278"/>
<text text-anchor="start" x="45.62" y="-288.3" font-family="Helvetica,sans-Serif" font-weight="bold" font-size="16.00">User</text>
<polygon fill="none" stroke="black" points="8,-250.75 8,-278 124.5,-278 124.5,-250.75 8,-250.75"/>
<text text-anchor="start" x="13" y="-260.7" font-family="Helvetica,sans-Serif" text-decoration="underline" font-size="14.00">id</text>
<polygon fill="none" stroke="black" points="8,-223.5 8,-250.75 124.5,-250.75 124.5,-223.5 8,-223.5"/>
<text text-anchor="start" x="13" y="-232.45" font-family="Helvetica,sans-Serif" font-size="14.00">name</text>
<polygon fill="none" stroke="black" points="8,-196.25 8,-223.5 124.5,-223.5 124.5,-196.25 8,-196.25"/>
<text text-anchor="start" x="13" y="-205.2" font-family="Helvetica,sans-Serif" font-size="14.00">email</text>
<polygon fill="none" stroke="black" points="8,-169 8,-196.25 124.5,-196.25 124.5,-169 8,-169"/>
<text text-anchor="start" x="13" y="-177.95" font-family="Helvetica,sans-Serif" font-size="14.00">password_hash</text>
<polygon fill="none" stroke="black" points="8,-141.75 8,-169 124.5,-169 124.5,-141.75 8,-141.75"/>
<text text-anchor="start" x="13" y="-150.7" font-family="Helvetica,sans-Serif" font-size="14.00">roles</text>
</g>
<!-- Transaction -->
<g id="node3" class="node">
<title>Transaction</title>
<polygon fill="none" stroke="black" points="254,-276 254,-305.5 368.25,-305.5 368.25,-276 254,-276"/>
<text text-anchor="start" x="259" y="-286.3" font-family="Helvetica,sans-Serif" font-weight="bold" font-size="16.00">Transaction</text>
<polygon fill="none" stroke="black" points="254,-248.75 254,-276 368.25,-276 368.25,-248.75 254,-248.75"/>
<text text-anchor="start" x="259" y="-258.7" font-family="Helvetica,sans-Serif" text-decoration="underline" font-size="14.00">id</text>
<polygon fill="none" stroke="black" points="254,-221.5 254,-248.75 368.25,-248.75 368.25,-221.5 254,-221.5"/>
<text text-anchor="start" x="259" y="-230.45" font-family="Helvetica,sans-Serif" font-size="14.00">amount</text>
<polygon fill="none" stroke="black" points="254,-194.25 254,-221.5 368.25,-221.5 368.25,-194.25 254,-194.25"/>
<text text-anchor="start" x="259" y="-203.2" font-family="Helvetica,sans-Serif" font-size="14.00">date</text>
<polygon fill="none" stroke="black" points="254,-167 254,-194.25 368.25,-194.25 368.25,-167 254,-167"/>
<text text-anchor="start" x="259" y="-176.95" font-family="Helvetica,sans-Serif" font-style="italic" font-size="14.00">user_id</text>
<polygon fill="none" stroke="black" points="254,-139.75 254,-167 368.25,-167 368.25,-139.75 254,-139.75"/>
<text text-anchor="start" x="259" y="-149.7" font-family="Helvetica,sans-Serif" font-style="italic" font-size="14.00">place_id</text>
</g>
<!-- User&#45;&#45;Transaction -->
<g id="edge1" class="edge">
<title>User&#45;&#45;Transaction</title>
<path fill="none" stroke="#7f7f7f" stroke-dasharray="5,2" d="M132.34,-224.09C167.6,-223.8 211.02,-223.44 246.12,-223.15"/>
<text text-anchor="start" x="216.12" y="-209.85" font-family="Times,serif" font-size="14.00">0..N</text>
<text text-anchor="start" x="132.34" y="-210.79" font-family="Times,serif" font-size="14.00">1</text>
</g>
<!-- User_favorite_places -->
<g id="node4" class="node">
<title>User_favorite_places</title>
<polygon fill="none" stroke="black" points="213.5,-82.12 213.5,-111.62 408.75,-111.62 408.75,-82.12 213.5,-82.12"/>
<text text-anchor="start" x="218.5" y="-92.42" font-family="Helvetica,sans-Serif" font-weight="bold" font-size="16.00">User_favorite_places</text>
<polygon fill="none" stroke="black" points="213.5,-54.88 213.5,-82.12 408.75,-82.12 408.75,-54.88 213.5,-54.88"/>
<text text-anchor="start" x="218.5" y="-64.83" font-family="Helvetica,sans-Serif" font-style="italic" text-decoration="underline" font-size="14.00">user_id</text>
<polygon fill="none" stroke="black" points="213.5,-27.62 213.5,-54.88 408.75,-54.88 408.75,-27.62 213.5,-27.62"/>
<text text-anchor="start" x="218.5" y="-37.58" font-family="Helvetica,sans-Serif" font-style="italic" text-decoration="underline" font-size="14.00">place_id</text>
</g>
<!-- User&#45;&#45;User_favorite_places -->
<g id="edge3" class="edge">
<title>User&#45;&#45;User_favorite_places</title>
<path fill="none" stroke="#7f7f7f" stroke-dasharray="5,2" d="M132.28,-176.15C155.04,-159.82 181.04,-141.89 205.5,-126.62 211.47,-122.9 217.69,-119.16 224.01,-115.48"/>
<text text-anchor="start" x="194.01" y="-119.43" font-family="Times,serif" font-size="14.00">0..N</text>
<text text-anchor="start" x="132.28" y="-162.85" font-family="Times,serif" font-size="14.00">1</text>
</g>
<!-- Place -->
<g id="node2" class="node">
<title>Place</title>
<polygon fill="none" stroke="black" points="37.25,-85.75 37.25,-115.25 95.25,-115.25 95.25,-85.75 37.25,-85.75"/>
<text text-anchor="start" x="42.25" y="-96.05" font-family="Helvetica,sans-Serif" font-weight="bold" font-size="16.00">Place</text>
<polygon fill="none" stroke="black" points="37.25,-58.5 37.25,-85.75 95.25,-85.75 95.25,-58.5 37.25,-58.5"/>
<text text-anchor="start" x="42.25" y="-68.45" font-family="Helvetica,sans-Serif" text-decoration="underline" font-size="14.00">id</text>
<polygon fill="none" stroke="black" points="37.25,-31.25 37.25,-58.5 95.25,-58.5 95.25,-31.25 37.25,-31.25"/>
<text text-anchor="start" x="42.25" y="-40.2" font-family="Helvetica,sans-Serif" font-size="14.00">name</text>
<polygon fill="none" stroke="black" points="37.25,-4 37.25,-31.25 95.25,-31.25 95.25,-4 37.25,-4"/>
<text text-anchor="start" x="42.25" y="-12.95" font-family="Helvetica,sans-Serif" font-size="14.00">rating</text>
</g>
<!-- Place&#45;&#45;Transaction -->
<g id="edge2" class="edge">
<title>Place&#45;&#45;Transaction</title>
<path fill="none" stroke="#7f7f7f" stroke-dasharray="5,2" d="M103.09,-83.68C140.69,-108.91 200.58,-149.11 246.3,-179.79"/>
<text text-anchor="start" x="216.3" y="-166.49" font-family="Times,serif" font-size="14.00">0..N</text>
<text text-anchor="start" x="103.09" y="-70.38" font-family="Times,serif" font-size="14.00">1</text>
</g>
<!-- Place&#45;&#45;User_favorite_places -->
<g id="edge4" class="edge">
<title>Place&#45;&#45;User_favorite_places</title>
<path fill="none" stroke="#7f7f7f" stroke-dasharray="5,2" d="M103.09,-61.1C130.2,-62.22 168.91,-63.81 205.52,-65.32"/>
<text text-anchor="start" x="175.52" y="-52.02" font-family="Times,serif" font-size="14.00">0..N</text>
<text text-anchor="start" x="103.09" y="-47.8" font-family="Times,serif" font-size="14.00">1</text>
</g>
</g>
</svg>
