<?xml version="1.0" encoding="UTF-8" standalone="no"?>
<!DOCTYPE svg PUBLIC "-//W3C//DTD SVG 1.1//EN"
 "http://www.w3.org/Graphics/SVG/1.1/DTD/svg11.dtd">
<!-- Generated by graphviz version 9.0.0 (20230911.1827)
 -->
<!-- Pages: 1 -->
<svg width="344pt" height="320pt"
 viewBox="0.00 0.00 343.75 319.50" xmlns="http://www.w3.org/2000/svg" xmlns:xlink="http://www.w3.org/1999/xlink">
<g id="graph0" class="graph" transform="scale(1 1) rotate(0) translate(4 315.5)">
<polygon fill="white" stroke="none" points="-4,4 -4,-315.5 339.75,-315.5 339.75,4 -4,4"/>
<!-- User -->
<g id="node1" class="node">
<title>User</title>
<polygon fill="none" stroke="black" points="211.25,-278 211.25,-307.5 327.75,-307.5 327.75,-278 211.25,-278"/>
<text text-anchor="start" x="248.88" y="-288.3" font-family="Helvetica,sans-Serif" font-weight="bold" font-size="16.00">User</text>
<polygon fill="none" stroke="black" points="211.25,-250.75 211.25,-278 327.75,-278 327.75,-250.75 211.25,-250.75"/>
<text text-anchor="start" x="216.25" y="-260.7" font-family="Helvetica,sans-Serif" text-decoration="underline" font-size="14.00">id</text>
<polygon fill="none" stroke="black" points="211.25,-223.5 211.25,-250.75 327.75,-250.75 327.75,-223.5 211.25,-223.5"/>
<text text-anchor="start" x="216.25" y="-232.45" font-family="Helvetica,sans-Serif" font-size="14.00">name</text>
<polygon fill="none" stroke="black" points="211.25,-196.25 211.25,-223.5 327.75,-223.5 327.75,-196.25 211.25,-196.25"/>
<text text-anchor="start" x="216.25" y="-205.2" font-family="Helvetica,sans-Serif" font-size="14.00">email</text>
<polygon fill="none" stroke="black" points="211.25,-169 211.25,-196.25 327.75,-196.25 327.75,-169 211.25,-169"/>
<text text-anchor="start" x="216.25" y="-177.95" font-family="Helvetica,sans-Serif" font-size="14.00">password_hash</text>
<polygon fill="none" stroke="black" points="211.25,-141.75 211.25,-169 327.75,-169 327.75,-141.75 211.25,-141.75"/>
<text text-anchor="start" x="216.25" y="-150.7" font-family="Helvetica,sans-Serif" font-size="14.00">roles</text>
</g>
<!-- Transaction -->
<g id="node2" class="node">
<title>Transaction</title>
<polygon fill="none" stroke="black" points="8,-195 8,-224.5 122.25,-224.5 122.25,-195 8,-195"/>
<text text-anchor="start" x="13" y="-205.3" font-family="Helvetica,sans-Serif" font-weight="bold" font-size="16.00">Transaction</text>
<polygon fill="none" stroke="black" points="8,-167.75 8,-195 122.25,-195 122.25,-167.75 8,-167.75"/>
<text text-anchor="start" x="13" y="-177.7" font-family="Helvetica,sans-Serif" text-decoration="underline" font-size="14.00">id</text>
<polygon fill="none" stroke="black" points="8,-140.5 8,-167.75 122.25,-167.75 122.25,-140.5 8,-140.5"/>
<text text-anchor="start" x="13" y="-149.45" font-family="Helvetica,sans-Serif" font-size="14.00">amount</text>
<polygon fill="none" stroke="black" points="8,-113.25 8,-140.5 122.25,-140.5 122.25,-113.25 8,-113.25"/>
<text text-anchor="start" x="13" y="-122.2" font-family="Helvetica,sans-Serif" font-size="14.00">date</text>
<polygon fill="none" stroke="black" points="8,-86 8,-113.25 122.25,-113.25 122.25,-86 8,-86"/>
<text text-anchor="start" x="13" y="-95.95" font-family="Helvetica,sans-Serif" font-style="italic" font-size="14.00">user_id</text>
<polygon fill="none" stroke="black" points="8,-58.75 8,-86 122.25,-86 122.25,-58.75 8,-58.75"/>
<text text-anchor="start" x="13" y="-68.7" font-family="Helvetica,sans-Serif" font-style="italic" font-size="14.00">place_id</text>
</g>
<!-- Transaction&#45;&#45;User -->
<g id="edge2" class="edge">
<title>Transaction&#45;&#45;User</title>
<path fill="none" stroke="#7f7f7f" stroke-dasharray="5,2" d="M130.16,-167.89C153.55,-177.48 180.02,-188.34 203.49,-197.96"/>
<text text-anchor="start" x="194.49" y="-184.66" font-family="Times,serif" font-size="14.00">1</text>
<text text-anchor="start" x="130.16" y="-154.59" font-family="Times,serif" font-size="14.00">0..N</text>
</g>
<!-- Place -->
<g id="node3" class="node">
<title>Place</title>
<polygon fill="none" stroke="black" points="240.5,-85.75 240.5,-115.25 298.5,-115.25 298.5,-85.75 240.5,-85.75"/>
<text text-anchor="start" x="245.5" y="-96.05" font-family="Helvetica,sans-Serif" font-weight="bold" font-size="16.00">Place</text>
<polygon fill="none" stroke="black" points="240.5,-58.5 240.5,-85.75 298.5,-85.75 298.5,-58.5 240.5,-58.5"/>
<text text-anchor="start" x="245.5" y="-68.45" font-family="Helvetica,sans-Serif" text-decoration="underline" font-size="14.00">id</text>
<polygon fill="none" stroke="black" points="240.5,-31.25 240.5,-58.5 298.5,-58.5 298.5,-31.25 240.5,-31.25"/>
<text text-anchor="start" x="245.5" y="-40.2" font-family="Helvetica,sans-Serif" font-size="14.00">name</text>
<polygon fill="none" stroke="black" points="240.5,-4 240.5,-31.25 298.5,-31.25 298.5,-4 240.5,-4"/>
<text text-anchor="start" x="245.5" y="-12.95" font-family="Helvetica,sans-Serif" font-size="14.00">rating</text>
</g>
<!-- Transaction&#45;&#45;Place -->
<g id="edge1" class="edge">
<title>Transaction&#45;&#45;Place</title>
<path fill="none" stroke="#7f7f7f" stroke-dasharray="5,2" d="M130.16,-115.68C163.97,-101.98 204.21,-85.67 232.55,-74.19"/>
<text text-anchor="start" x="223.55" y="-60.89" font-family="Times,serif" font-size="14.00">1</text>
<text text-anchor="start" x="130.16" y="-102.38" font-family="Times,serif" font-size="14.00">0..N</text>
</g>
</g>
</svg>
