<?xml version="1.0" encoding="UTF-8" standalone="no"?>
<!DOCTYPE svg PUBLIC "-//W3C//DTD SVG 1.1//EN"
 "http://www.w3.org/Graphics/SVG/1.1/DTD/svg11.dtd">
<!-- Generated by graphviz version 9.0.0 (20230911.1827)
 -->
<!-- Pages: 1 -->
<svg width="635pt" height="320pt"
 viewBox="0.00 0.00 634.75 319.50" xmlns="http://www.w3.org/2000/svg" xmlns:xlink="http://www.w3.org/1999/xlink">
<g id="graph0" class="graph" transform="scale(1 1) rotate(0) translate(4 315.5)">
<polygon fill="white" stroke="none" points="-4,4 -4,-315.5 630.75,-315.5 630.75,4 -4,4"/>
<!-- users -->
<g id="node1" class="node">
<title>users</title>
<polygon fill="none" stroke="black" points="219.5,-278 219.5,-307.5 336,-307.5 336,-278 219.5,-278"/>
<text text-anchor="start" x="253" y="-288.3" font-family="Helvetica,sans-Serif" font-weight="bold" font-size="16.00">users</text>
<polygon fill="none" stroke="black" points="219.5,-250.75 219.5,-278 336,-278 336,-250.75 219.5,-250.75"/>
<text text-anchor="start" x="224.5" y="-260.7" font-family="Helvetica,sans-Serif" text-decoration="underline" font-size="14.00">id</text>
<polygon fill="none" stroke="black" points="219.5,-223.5 219.5,-250.75 336,-250.75 336,-223.5 219.5,-223.5"/>
<text text-anchor="start" x="224.5" y="-232.45" font-family="Helvetica,sans-Serif" font-size="14.00">name</text>
<polygon fill="none" stroke="black" points="219.5,-196.25 219.5,-223.5 336,-223.5 336,-196.25 219.5,-196.25"/>
<text text-anchor="start" x="224.5" y="-205.2" font-family="Helvetica,sans-Serif" font-size="14.00">email</text>
<polygon fill="none" stroke="black" points="219.5,-169 219.5,-196.25 336,-196.25 336,-169 219.5,-169"/>
<text text-anchor="start" x="224.5" y="-177.95" font-family="Helvetica,sans-Serif" font-size="14.00">password_hash</text>
<polygon fill="none" stroke="black" points="219.5,-141.75 219.5,-169 336,-169 336,-141.75 219.5,-141.75"/>
<text text-anchor="start" x="224.5" y="-150.7" font-family="Helvetica,sans-Serif" font-size="14.00">roles</text>
</g>
<!-- user_favorite_places -->
<g id="node4" class="node">
<title>user_favorite_places</title>
<polygon fill="none" stroke="black" points="425,-154.12 425,-183.62 618.75,-183.62 618.75,-154.12 425,-154.12"/>
<text text-anchor="start" x="430" y="-164.43" font-family="Helvetica,sans-Serif" font-weight="bold" font-size="16.00">user_favorite_places</text>
<polygon fill="none" stroke="black" points="425,-126.88 425,-154.12 618.75,-154.12 618.75,-126.88 425,-126.88"/>
<text text-anchor="start" x="430" y="-136.82" font-family="Helvetica,sans-Serif" font-style="italic" text-decoration="underline" font-size="14.00">user_id</text>
<polygon fill="none" stroke="black" points="425,-99.62 425,-126.88 618.75,-126.88 618.75,-99.62 425,-99.62"/>
<text text-anchor="start" x="430" y="-109.58" font-family="Helvetica,sans-Serif" font-style="italic" text-decoration="underline" font-size="14.00">place_id</text>
</g>
<!-- users&#45;&#45;user_favorite_places -->
<g id="edge3" class="edge">
<title>users&#45;&#45;user_favorite_places</title>
<path fill="none" stroke="#7f7f7f" stroke-dasharray="5,2" d="M343.95,-202.27C366.5,-194.54 392.37,-185.68 417.23,-177.15"/>
<text text-anchor="start" x="387.23" y="-163.85" font-family="Times,serif" font-size="14.00">0..N</text>
<text text-anchor="start" x="343.95" y="-188.97" font-family="Times,serif" font-size="14.00">1</text>
</g>
<!-- transactions -->
<g id="node2" class="node">
<title>transactions</title>
<polygon fill="none" stroke="black" points="8,-195 8,-224.5 130.5,-224.5 130.5,-195 8,-195"/>
<text text-anchor="start" x="13" y="-205.3" font-family="Helvetica,sans-Serif" font-weight="bold" font-size="16.00">transactions</text>
<polygon fill="none" stroke="black" points="8,-167.75 8,-195 130.5,-195 130.5,-167.75 8,-167.75"/>
<text text-anchor="start" x="13" y="-177.7" font-family="Helvetica,sans-Serif" text-decoration="underline" font-size="14.00">id</text>
<polygon fill="none" stroke="black" points="8,-140.5 8,-167.75 130.5,-167.75 130.5,-140.5 8,-140.5"/>
<text text-anchor="start" x="13" y="-149.45" font-family="Helvetica,sans-Serif" font-size="14.00">amount</text>
<polygon fill="none" stroke="black" points="8,-113.25 8,-140.5 130.5,-140.5 130.5,-113.25 8,-113.25"/>
<text text-anchor="start" x="13" y="-122.2" font-family="Helvetica,sans-Serif" font-size="14.00">date</text>
<polygon fill="none" stroke="black" points="8,-86 8,-113.25 130.5,-113.25 130.5,-86 8,-86"/>
<text text-anchor="start" x="13" y="-95.95" font-family="Helvetica,sans-Serif" font-style="italic" font-size="14.00">user_id</text>
<polygon fill="none" stroke="black" points="8,-58.75 8,-86 130.5,-86 130.5,-58.75 8,-58.75"/>
<text text-anchor="start" x="13" y="-68.7" font-family="Helvetica,sans-Serif" font-style="italic" font-size="14.00">place_id</text>
</g>
<!-- transactions&#45;&#45;users -->
<g id="edge2" class="edge">
<title>transactions&#45;&#45;users</title>
<path fill="none" stroke="#7f7f7f" stroke-dasharray="5,2" d="M138.44,-169.03C162.05,-178.52 188.44,-189.13 211.79,-198.51"/>
<text text-anchor="start" x="202.79" y="-185.21" font-family="Times,serif" font-size="14.00">1</text>
<text text-anchor="start" x="138.44" y="-155.73" font-family="Times,serif" font-size="14.00">0..N</text>
</g>
<!-- places -->
<g id="node3" class="node">
<title>places</title>
<polygon fill="none" stroke="black" points="244.25,-85.75 244.25,-115.25 311.25,-115.25 311.25,-85.75 244.25,-85.75"/>
<text text-anchor="start" x="249.25" y="-96.05" font-family="Helvetica,sans-Serif" font-weight="bold" font-size="16.00">places</text>
<polygon fill="none" stroke="black" points="244.25,-58.5 244.25,-85.75 311.25,-85.75 311.25,-58.5 244.25,-58.5"/>
<text text-anchor="start" x="249.25" y="-68.45" font-family="Helvetica,sans-Serif" text-decoration="underline" font-size="14.00">id</text>
<polygon fill="none" stroke="black" points="244.25,-31.25 244.25,-58.5 311.25,-58.5 311.25,-31.25 244.25,-31.25"/>
<text text-anchor="start" x="249.25" y="-40.2" font-family="Helvetica,sans-Serif" font-size="14.00">name</text>
<polygon fill="none" stroke="black" points="244.25,-4 244.25,-31.25 311.25,-31.25 311.25,-4 244.25,-4"/>
<text text-anchor="start" x="249.25" y="-12.95" font-family="Helvetica,sans-Serif" font-size="14.00">rating</text>
</g>
<!-- transactions&#45;&#45;places -->
<g id="edge1" class="edge">
<title>transactions&#45;&#45;places</title>
<path fill="none" stroke="#7f7f7f" stroke-dasharray="5,2" d="M138.44,-114.55C170.86,-101.67 208.52,-86.72 236.35,-75.67"/>
<text text-anchor="start" x="227.35" y="-62.37" font-family="Times,serif" font-size="14.00">1</text>
<text text-anchor="start" x="138.44" y="-101.25" font-family="Times,serif" font-size="14.00">0..N</text>
</g>
<!-- places&#45;&#45;user_favorite_places -->
<g id="edge4" class="edge">
<title>places&#45;&#45;user_favorite_places</title>
<path fill="none" stroke="#7f7f7f" stroke-dasharray="5,2" d="M319,-73.26C345.83,-82.34 382.4,-94.73 417.05,-106.46"/>
<text text-anchor="start" x="387.05" y="-93.16" font-family="Times,serif" font-size="14.00">0..N</text>
<text text-anchor="start" x="319" y="-59.96" font-family="Times,serif" font-size="14.00">1</text>
</g>
</g>
</svg>
