<?xml version="1.0" encoding="UTF-8" standalone="no"?>
<!DOCTYPE svg PUBLIC "-//W3C//DTD SVG 1.1//EN"
 "http://www.w3.org/Graphics/SVG/1.1/DTD/svg11.dtd">
<!-- Generated by graphviz version 9.0.0 (20230911.1827)
 -->
<!-- Pages: 1 -->
<svg width="439pt" height="292pt"
 viewBox="0.00 0.00 439.00 291.88" xmlns="http://www.w3.org/2000/svg" xmlns:xlink="http://www.w3.org/1999/xlink">
<g id="graph0" class="graph" transform="scale(1 1) rotate(0) translate(4 287.88)">
<polygon fill="white" stroke="none" points="-4,4 -4,-287.88 435,-287.88 435,4 -4,4"/>
<!-- Klant -->
<g id="node1" class="node">
<title>Klant</title>
<polygon fill="none" stroke="black" points="8,-104.75 8,-134.25 87.75,-134.25 87.75,-104.75 8,-104.75"/>
<text text-anchor="start" x="24.25" y="-115.05" font-family="Helvetica,sans-Serif" font-weight="bold" font-size="16.00">Klant</text>
<polygon fill="none" stroke="black" points="8,-77.5 8,-104.75 87.75,-104.75 87.75,-77.5 8,-77.5"/>
<text text-anchor="start" x="13" y="-87.45" font-family="Helvetica,sans-Serif" text-decoration="underline" font-size="14.00">id</text>
<polygon fill="none" stroke="black" points="8,-50.25 8,-77.5 87.75,-77.5 87.75,-50.25 8,-50.25"/>
<text text-anchor="start" x="13" y="-60.2" font-family="Helvetica,sans-Serif" font-style="italic" font-size="14.00">persoonId</text>
<polygon fill="none" stroke="black" points="8,-23 8,-50.25 87.75,-50.25 87.75,-23 8,-23"/>
<text text-anchor="start" x="13" y="-32.95" font-family="Helvetica,sans-Serif" font-style="italic" font-size="14.00">adresId</text>
</g>
<!-- Adres -->
<g id="node2" class="node">
<title>Adres</title>
<polygon fill="none" stroke="black" points="187.62,-250.38 187.62,-279.88 250.12,-279.88 250.12,-250.38 187.62,-250.38"/>
<text text-anchor="start" x="192.62" y="-260.68" font-family="Helvetica,sans-Serif" font-weight="bold" font-size="16.00">Adres</text>
<polygon fill="none" stroke="black" points="187.62,-223.12 187.62,-250.38 250.12,-250.38 250.12,-223.12 187.62,-223.12"/>
<text text-anchor="start" x="192.62" y="-233.07" font-family="Helvetica,sans-Serif" text-decoration="underline" font-size="14.00">id</text>
<polygon fill="none" stroke="black" points="187.62,-195.88 187.62,-223.12 250.12,-223.12 250.12,-195.88 187.62,-195.88"/>
<text text-anchor="start" x="192.62" y="-204.82" font-family="Helvetica,sans-Serif" font-size="14.00">straat</text>
<polygon fill="none" stroke="black" points="187.62,-168.62 187.62,-195.88 250.12,-195.88 250.12,-168.62 187.62,-168.62"/>
<text text-anchor="start" x="192.62" y="-177.57" font-family="Helvetica,sans-Serif" font-size="14.00">nr</text>
<polygon fill="none" stroke="black" points="187.62,-141.38 187.62,-168.62 250.12,-168.62 250.12,-141.38 187.62,-141.38"/>
<text text-anchor="start" x="192.62" y="-151.32" font-family="Helvetica,sans-Serif" font-style="italic" font-size="14.00">stadId</text>
</g>
<!-- Klant&#45;&#45;Adres -->
<g id="edge1" class="edge">
<title>Klant&#45;&#45;Adres</title>
<path fill="none" stroke="#7f7f7f" stroke-dasharray="5,2" d="M95.5,-115.04C121.98,-135.72 154.71,-161.29 179.66,-180.78"/>
<text text-anchor="start" x="170.66" y="-167.48" font-family="Times,serif" font-size="14.00">1</text>
<text text-anchor="start" x="95.5" y="-101.74" font-family="Times,serif" font-size="14.00">1</text>
</g>
<!-- Persoon -->
<g id="node4" class="node">
<title>Persoon</title>
<polygon fill="none" stroke="black" points="176.75,-85.75 176.75,-115.25 261,-115.25 261,-85.75 176.75,-85.75"/>
<text text-anchor="start" x="181.75" y="-96.05" font-family="Helvetica,sans-Serif" font-weight="bold" font-size="16.00">Persoon</text>
<polygon fill="none" stroke="black" points="176.75,-58.5 176.75,-85.75 261,-85.75 261,-58.5 176.75,-58.5"/>
<text text-anchor="start" x="181.75" y="-68.45" font-family="Helvetica,sans-Serif" text-decoration="underline" font-size="14.00">id</text>
<polygon fill="none" stroke="black" points="176.75,-31.25 176.75,-58.5 261,-58.5 261,-31.25 176.75,-31.25"/>
<text text-anchor="start" x="181.75" y="-40.2" font-family="Helvetica,sans-Serif" font-size="14.00">voornaam</text>
<polygon fill="none" stroke="black" points="176.75,-4 176.75,-31.25 261,-31.25 261,-4 176.75,-4"/>
<text text-anchor="start" x="181.75" y="-12.95" font-family="Helvetica,sans-Serif" font-size="14.00">naam</text>
</g>
<!-- Klant&#45;&#45;Persoon -->
<g id="edge2" class="edge">
<title>Klant&#45;&#45;Persoon</title>
<path fill="none" stroke="#7f7f7f" stroke-dasharray="5,2" d="M95.5,-73.38C118.36,-70.81 145.89,-67.72 169.04,-65.12"/>
<text text-anchor="start" x="160.04" y="-51.82" font-family="Times,serif" font-size="14.00">1</text>
<text text-anchor="start" x="95.5" y="-60.08" font-family="Times,serif" font-size="14.00">1</text>
</g>
<!-- Stad -->
<g id="node3" class="node">
<title>Stad</title>
<polygon fill="none" stroke="black" points="350,-236.75 350,-266.25 423,-266.25 423,-236.75 350,-236.75"/>
<text text-anchor="start" x="366.25" y="-247.05" font-family="Helvetica,sans-Serif" font-weight="bold" font-size="16.00">Stad</text>
<polygon fill="none" stroke="black" points="350,-209.5 350,-236.75 423,-236.75 423,-209.5 350,-209.5"/>
<text text-anchor="start" x="355" y="-219.45" font-family="Helvetica,sans-Serif" text-decoration="underline" font-size="14.00">id</text>
<polygon fill="none" stroke="black" points="350,-182.25 350,-209.5 423,-209.5 423,-182.25 350,-182.25"/>
<text text-anchor="start" x="355" y="-191.2" font-family="Helvetica,sans-Serif" font-size="14.00">postcode</text>
<polygon fill="none" stroke="black" points="350,-155 350,-182.25 423,-182.25 423,-155 350,-155"/>
<text text-anchor="start" x="355" y="-163.95" font-family="Helvetica,sans-Serif" font-size="14.00">naam</text>
</g>
<!-- Adres&#45;&#45;Stad -->
<g id="edge3" class="edge">
<title>Adres&#45;&#45;Stad</title>
<path fill="none" stroke="#7f7f7f" stroke-dasharray="5,2" d="M257.87,-210.62C282.99,-210.62 315.98,-210.62 342.13,-210.62"/>
<text text-anchor="start" x="333.13" y="-197.32" font-family="Times,serif" font-size="14.00">1</text>
<text text-anchor="start" x="257.87" y="-210.26" font-family="Times,serif" font-size="14.00">0..N</text>
</g>
</g>
</svg>
