<?xml version="1.0" encoding="UTF-8" standalone="no"?>
<!DOCTYPE svg PUBLIC "-//W3C//DTD SVG 1.1//EN"
 "http://www.w3.org/Graphics/SVG/1.1/DTD/svg11.dtd">
<!-- Generated by graphviz version 2.44.0 ()
 -->
<!-- Pages: 1 -->
<svg width="412pt" height="274pt"
 viewBox="0.00 0.00 412.00 273.50" xmlns="http://www.w3.org/2000/svg" xmlns:xlink="http://www.w3.org/1999/xlink">
<g id="graph0" class="graph" transform="scale(1 1) rotate(0) translate(4 269.5)">
<polygon fill="white" stroke="transparent" points="-4,4 -4,-269.5 408,-269.5 408,4 -4,4"/>
<!-- Klant -->
<g id="node1" class="node">
<title>Klant</title>
<polygon fill="none" stroke="black" points="8.5,-97.5 8.5,-125.5 79.5,-125.5 79.5,-97.5 8.5,-97.5"/>
<text text-anchor="start" x="23.5" y="-108.7" font-family="Helvetica,sans-Serif" font-weight="bold" font-size="16.00">Klant</text>
<polygon fill="none" stroke="black" points="8.5,-72.5 8.5,-97.5 79.5,-97.5 79.5,-72.5 8.5,-72.5"/>
<text text-anchor="start" x="13.5" y="-82.3" font-family="Helvetica,sans-Serif" text-decoration="underline" font-size="14.00">id</text>
<polygon fill="none" stroke="black" points="8.5,-47.5 8.5,-72.5 79.5,-72.5 79.5,-47.5 8.5,-47.5"/>
<text text-anchor="start" x="13.5" y="-57.3" font-family="Helvetica,sans-Serif" font-style="italic" font-size="14.00">persoonId</text>
<polygon fill="none" stroke="black" points="8.5,-22.5 8.5,-47.5 79.5,-47.5 79.5,-22.5 8.5,-22.5"/>
<text text-anchor="start" x="13.5" y="-32.3" font-family="Helvetica,sans-Serif" font-style="italic" font-size="14.00">adresId</text>
</g>
<!-- Adres -->
<g id="node2" class="node">
<title>Adres</title>
<polygon fill="none" stroke="black" points="177,-233.5 177,-261.5 233,-261.5 233,-233.5 177,-233.5"/>
<text text-anchor="start" x="182" y="-244.7" font-family="Helvetica,sans-Serif" font-weight="bold" font-size="16.00">Adres</text>
<polygon fill="none" stroke="black" points="177,-208.5 177,-233.5 233,-233.5 233,-208.5 177,-208.5"/>
<text text-anchor="start" x="182" y="-218.3" font-family="Helvetica,sans-Serif" text-decoration="underline" font-size="14.00">id</text>
<polygon fill="none" stroke="black" points="177,-183.5 177,-208.5 233,-208.5 233,-183.5 177,-183.5"/>
<text text-anchor="start" x="182" y="-192.3" font-family="Helvetica,sans-Serif" font-size="14.00">straat</text>
<polygon fill="none" stroke="black" points="177,-158.5 177,-183.5 233,-183.5 233,-158.5 177,-158.5"/>
<text text-anchor="start" x="182" y="-167.3" font-family="Helvetica,sans-Serif" font-size="14.00">nr</text>
<polygon fill="none" stroke="black" points="177,-133.5 177,-158.5 233,-158.5 233,-133.5 177,-133.5"/>
<text text-anchor="start" x="182" y="-143.3" font-family="Helvetica,sans-Serif" font-style="italic" font-size="14.00">stadId</text>
</g>
<!-- Klant&#45;&#45;Adres -->
<g id="edge2" class="edge">
<title>Klant&#45;&#45;Adres</title>
<path fill="none" stroke="#7f7f7f" stroke-dasharray="5,2" d="M87.24,-107.46C112.8,-127.17 144.88,-151.91 168.94,-170.47"/>
<text text-anchor="start" x="161.94" y="-159.27" font-family="Times,serif" font-size="14.00">1</text>
<text text-anchor="start" x="87.24" y="-96.26" font-family="Times,serif" font-size="14.00">1</text>
</g>
<!-- Persoon -->
<g id="node4" class="node">
<title>Persoon</title>
<polygon fill="none" stroke="black" points="168,-78.5 168,-106.5 242,-106.5 242,-78.5 168,-78.5"/>
<text text-anchor="start" x="173" y="-89.7" font-family="Helvetica,sans-Serif" font-weight="bold" font-size="16.00">Persoon</text>
<polygon fill="none" stroke="black" points="168,-53.5 168,-78.5 242,-78.5 242,-53.5 168,-53.5"/>
<text text-anchor="start" x="173" y="-63.3" font-family="Helvetica,sans-Serif" text-decoration="underline" font-size="14.00">id</text>
<polygon fill="none" stroke="black" points="168,-28.5 168,-53.5 242,-53.5 242,-28.5 168,-28.5"/>
<text text-anchor="start" x="173" y="-37.3" font-family="Helvetica,sans-Serif" font-size="14.00">voornaam</text>
<polygon fill="none" stroke="black" points="168,-3.5 168,-28.5 242,-28.5 242,-3.5 168,-3.5"/>
<text text-anchor="start" x="173" y="-12.3" font-family="Helvetica,sans-Serif" font-size="14.00">naam</text>
</g>
<!-- Klant&#45;&#45;Persoon -->
<g id="edge1" class="edge">
<title>Klant&#45;&#45;Persoon</title>
<path fill="none" stroke="#7f7f7f" stroke-dasharray="5,2" d="M87.24,-69.41C109.67,-66.74 137.11,-63.47 159.75,-60.77"/>
<text text-anchor="start" x="152.75" y="-49.57" font-family="Times,serif" font-size="14.00">1</text>
<text text-anchor="start" x="87.24" y="-58.21" font-family="Times,serif" font-size="14.00">1</text>
</g>
<!-- Stad -->
<g id="node3" class="node">
<title>Stad</title>
<polygon fill="none" stroke="black" points="331.5,-220.5 331.5,-248.5 396.5,-248.5 396.5,-220.5 331.5,-220.5"/>
<text text-anchor="start" x="346" y="-231.7" font-family="Helvetica,sans-Serif" font-weight="bold" font-size="16.00">Stad</text>
<polygon fill="none" stroke="black" points="331.5,-195.5 331.5,-220.5 396.5,-220.5 396.5,-195.5 331.5,-195.5"/>
<text text-anchor="start" x="336.5" y="-205.3" font-family="Helvetica,sans-Serif" text-decoration="underline" font-size="14.00">id</text>
<polygon fill="none" stroke="black" points="331.5,-170.5 331.5,-195.5 396.5,-195.5 396.5,-170.5 331.5,-170.5"/>
<text text-anchor="start" x="336.5" y="-179.3" font-family="Helvetica,sans-Serif" font-size="14.00">postcode</text>
<polygon fill="none" stroke="black" points="331.5,-145.5 331.5,-170.5 396.5,-170.5 396.5,-145.5 331.5,-145.5"/>
<text text-anchor="start" x="336.5" y="-154.3" font-family="Helvetica,sans-Serif" font-size="14.00">naam</text>
</g>
<!-- Adres&#45;&#45;Stad -->
<g id="edge3" class="edge">
<title>Adres&#45;&#45;Stad</title>
<path fill="none" stroke="#7f7f7f" stroke-dasharray="5,2" d="M241.12,-197.5C265.36,-197.5 297.64,-197.5 322.81,-197.5"/>
<text text-anchor="start" x="297.81" y="-186.3" font-family="Times,serif" font-size="14.00">0..N</text>
<text text-anchor="start" x="241.12" y="-186.3" font-family="Times,serif" font-size="14.00">1</text>
</g>
</g>
</svg>
